<?xml version="1.0" encoding="utf-8"?>
<!-- Generator: Adobe Illustrator 22.1.0, SVG Export Plug-In . SVG Version: 6.00 Build 0)  -->
<svg version="1.1" id="Layer_1" xmlns="http://www.w3.org/2000/svg" xmlns:xlink="http://www.w3.org/1999/xlink" x="0px" y="0px"
	 viewBox="0 0 193.9 280.1" style="enable-background:new 0 0 193.9 280.1;" xml:space="preserve">
<style type="text/css">
	.st0{clip-path:url(#SVGID_2_);enable-background:new    ;}
	.st1{clip-path:url(#SVGID_4_);fill:#39A8DF;}
	.st2{clip-path:url(#SVGID_2_);fill:#981869;}
	.st3{clip-path:url(#SVGID_2_);fill:#CDCD04;}
	.st4{clip-path:url(#SVGID_2_);fill:#013434;}
</style>
<g>
	<defs>
		<rect id="SVGID_1_" width="193.9" height="280.1"/>
	</defs>
	<clipPath id="SVGID_2_">
		<use xlink:href="#SVGID_1_"  style="overflow:visible;"/>
	</clipPath>
	<g class="st0">
		<g>
			<defs>
				<rect id="SVGID_3_" x="35.7" y="133" width="122.5" height="63.1"/>
			</defs>
			<clipPath id="SVGID_4_">
				<use xlink:href="#SVGID_3_"  style="overflow:visible;"/>
			</clipPath>
			<path class="st1" d="M131.4,140c-2.5,2.2-5.1,4.2-8,6c-7.9,4.8-16.8,7.2-26.6,7.2S78,150.8,70.1,146c-2.9-1.7-5.5-3.7-8-6
				c-4.3,3.9-7.9,8.5-10.7,13.8c-4.3,7.9-6.5,16.8-6.8,26.6c1,0.6,2,1.3,3,1.9c14.6,8.5,31.1,12.9,49.1,12.9
				c17.9,0,34.5-4.3,49.4-12.8c1-0.6,2.1-1.2,3.1-1.8c-0.3-9.8-2.6-18.8-6.9-26.6C139.3,148.6,135.7,143.9,131.4,140"/>
		</g>
	</g>
	<path class="st2" d="M23,85.9c6.5,0,12,2.2,16.4,6.6c2.5,2.5,4.3,5.4,5.4,8.6c-0.1-1.2-0.1-2.5-0.1-3.7c0-10.6,2.3-20.2,6.8-28.5
		c4.5-8.3,10.8-15,18.7-19.7C78,44.4,87,42,96.8,42c9.9,0,18.6,2.3,26.6,7.2c7.9,4.8,14.3,11.4,18.9,19.8c4.6,8.4,7,17.9,7,28.5
		c0,0,0,0.1,0,0.1c0.1,0.1,0.2,0.1,0.3,0.2c13.7,8.5,24.7,20.3,32.5,35.2c1.1,2.1,2.1,4.2,3.1,6.4c5.8-12.8,8.7-26.8,8.7-41.8
		c0-18.1-4-34.7-11.7-49.5c-7.8-14.9-18.8-26.7-32.5-35.2C135.8,4.3,120.3,0,103.4,0C89.7,0,76.9,2.9,65.1,8.5
		c-7,3.4-13.5,7.6-19.3,12.6c-0.6-5.3-2.7-9.9-6.4-13.6C35,3.2,29.5,1,23,1c-6.5,0-12,2.2-16.4,6.6C2.2,11.9,0,17.4,0,24v73.5
		c0,2.6,0.1,5.2,0.3,7.8C1,100.3,3.1,96,6.6,92.5C10.9,88.1,16.5,85.9,23,85.9"/>
	<path class="st3" d="M96.8,126.9c9.9,0,18.6,2.3,26.6,7.2c2.9,1.7,5.5,3.7,8,6c4.3-3.9,7.9-8.6,10.9-13.9c4.6-8.5,7-18.1,7-28.6
		c-13.7-8.3-29.1-12.6-45.9-12.6c-13.6,0-26.5,2.9-38.2,8.5c-7,3.4-13.5,7.6-19.3,12.6c-0.2-1.7-0.6-3.4-1.1-4.9
		c0.5,9.1,2.7,17.5,6.7,25c2.9,5.3,6.4,10,10.7,13.9c2.4-2.2,5.1-4.2,8-6C78,129.3,87,126.9,96.8,126.9"/>
	<path class="st3" d="M181.2,147.1c-7.8,13.8-18.6,25-32,33.4c0,0.6,0.1,1.2,0.1,1.9c0,10.5-2.4,20.2-7,28.7
		c-4.6,8.4-11,15.1-18.9,19.9c-7.9,4.8-16.8,7.2-26.6,7.2s-18.7-2.4-26.6-7.2c-7.9-4.8-14.2-11.5-18.7-19.9
		c-4.5-8.5-6.9-18.2-6.9-28.7c0-0.6,0-1.3,0.1-1.9c-13.2-8.4-23.9-19.6-31.8-33.3c-7.3-12.7-11.5-26.8-12.6-41.9
		c-0.2,1.2-0.3,2.4-0.3,3.7v73.5c0,18.1,4.3,34.9,12.8,49.7c8.5,14.8,20.2,26.7,34.9,35.2c14.6,8.5,31.1,12.9,49.1,12.9
		c17.9,0,34.5-4.3,49.4-12.8c14.8-8.5,26.6-20.4,35.1-35.2c8.4-14.8,12.7-31.5,12.7-49.7c0-15.5-2.9-30-8.7-43.1
		C184,141.9,182.7,144.5,181.2,147.1"/>
	<path class="st3" d="M149.6,97.7c-0.1-0.1-0.2-0.1-0.3-0.2c0,10.5-2.4,20.1-7,28.6c-2.9,5.4-6.6,10-10.9,13.9
		c4.3,3.9,8,8.5,10.9,13.8c4.4,7.9,6.7,16.8,6.9,26.6c13.4-8.4,24.2-19.6,32-33.4c1.5-2.6,2.8-5.2,4-7.9c-0.9-2.2-2-4.3-3.1-6.4
		C174.3,118,163.3,106.2,149.6,97.7"/>
	<path class="st4" d="M44.7,180.5c0.3-9.8,2.5-18.8,6.8-26.6c2.9-5.3,6.5-9.9,10.7-13.8c-4.3-3.9-7.8-8.5-10.7-13.9
		c-4-7.5-6.3-15.9-6.7-25c-1.1-3.2-2.9-6.1-5.4-8.6c-4.4-4.4-9.9-6.6-16.4-6.6c-6.5,0-12,2.2-16.4,6.6C3.1,96,1,100.3,0.3,105.2
		c1.1,15.2,5.3,29.2,12.6,41.9C20.8,160.9,31.5,172.1,44.7,180.5"/>
</g>
</svg>
